#!Matlab matrix to amc conversion
:FULLY-SPECIFIED
:DEGREES
16
root 9.192140 16.357400 -29.724600 2.404532 1.634016 0.108573
lowerback -2.701239 1.679605 -1.119084
upperback -2.837975 2.278230 -0.328478
thorax -1.389899 1.153633 0.242000
lowerneck -15.939890 0.477355 -0.880437
upperneck 39.146179 1.647827 -1.137030
head 17.463121 0.436889 -0.055295
rclavicle -0.000000 0.000000
rhumerus -38.276522 -14.398175 -73.402931
rradius 26.098847
rwrist -7.424931
rhand -6.287996 13.135253
rfingers 7.125020
rthumb 19.549465 -15.877197
lclavicle -0.000000 0.000000
lhumerus -43.238241 32.841929 61.579358
lradius 27.229915
lwrist -0.324659
lhand -4.477787 23.868193
lfingers 7.125020
lthumb 21.297298 52.644716
rfemur -7.029373 3.978641 22.513397
rtibia 46.691878
rfoot 1.016132 -15.346884
rtoes -3.058830
lfemur -27.451418 -6.210535 -22.963838
ltibia 31.005813
lfoot -15.634629 12.424919
ltoes -10.356072
17
root 9.191770 16.245600 -29.440800 2.458752 1.634016 0.091415
lowerback -2.403575 1.406975 -1.616622
upperback -2.787593 1.905578 -0.476226
thorax -1.504906 0.979059 0.453223
lowerneck -15.773451 0.500432 -1.087892
upperneck 39.067621 1.698270 -1.007392
head 17.370912 0.437585 0.043017
rclavicle -0.000000 0.000000
rhumerus -38.683076 -14.430076 -73.877305
rradius 25.686679
rwrist -6.689392
rhand -5.490574 13.039494
rfingers 7.125020
rthumb 20.317122 -15.908462
lclavicle -0.000000 0.000000
lhumerus -40.184064 31.780008 65.160629
lradius 28.644313
lwrist 0.953036
lhand -3.816638 24.418329
lfingers 7.125020
lthumb 21.937665 53.117628
rfemur -12.018862 2.314700 21.664607
rtibia 53.458193
rfoot 0.706259 -15.363813
rtoes -0.745455
lfemur -25.498932 -5.882082 -24.112372
ltibia 31.335406
lfoot -16.583218 11.528122
ltoes -11.247049
18
root 9.208550 16.156600 -29.151500 2.487641 1.634016 0.063927
lowerback -2.096481 1.100168 -2.159270
upperback -2.731364 1.492085 -0.612288
thorax -1.624167 0.783305 0.678660
lowerneck -15.591416 0.525842 -1.300405
upperneck 38.978709 1.752998 -0.874493
head 17.272102 0.439549 0.149117
rclavicle -0.000000 0.000000
rhumerus -39.080736 -14.435718 -74.388690
rradius 25.278109
rwrist -5.923599
rhand -4.644799 12.961964
rfingers 7.125020
rthumb 21.131110 -15.908566
lclavicle -0.000000 0.000000
lhumerus -36.708960 30.506325 69.060930
lradius 30.333905
lwrist 2.569126
lhand -3.066821 24.925005
lfingers 7.125020
lthumb 22.663524 53.539051
rfemur -17.199186 0.525397 20.758559
rtibia 60.655820
rfoot -0.523330 -15.398135
rtoes 1.510968
lfemur -23.482409 -5.509288 -25.325555
ltibia 31.755697
lfoot -17.587305 10.641112
ltoes -12.804689
19
root 9.222000 16.080900 -28.855000 2.508795 1.634016 -0.063823
lowerback -1.966041 1.116808 -2.119567
upperback -2.607288 1.509110 -0.479593
thorax -1.562218 0.790628 0.798397
lowerneck -15.489327 0.528060 -1.086158
upperneck 39.009121 1.669256 -0.903448
head 17.271319 0.439925 0.089741
rclavicle -0.000000 0.000000
rhumerus -39.258956 -14.463435 -74.544544
rradius 25.832231
rwrist -6.516158
rhand -4.779844 12.921659
rfingers 7.125020
rthumb 20.998872 -15.951930
lclavicle -0.000000 0.000000
lhumerus -34.948993 27.562727 70.969029
lradius 34.904694
lwrist 2.178273
lhand -3.358066 23.236838
lfingers 7.125020
lthumb 22.377217 51.888311
rfemur -20.631934 1.542995 20.800164
rtibia 57.326736
rfoot -4.600540 -16.631845
rtoes 0.136091
lfemur -21.439924 -6.130754 -25.516532
ltibia 31.690984
lfoot -18.913715 11.728882
ltoes -11.986394
20
root 9.232280 16.013400 -28.551200 2.522662 1.634016 -0.095245
lowerback -1.834527 1.135688 -2.097816
upperback -2.485496 1.529081 -0.358189
thorax -1.503493 0.799686 0.914511
lowerneck -15.414442 0.531219 -0.886781
upperneck 39.029222 1.588934 -0.939085
head 17.268196 0.441058 0.031594
rclavicle -0.000000 0.000000
rhumerus -39.420442 -14.482319 -74.691514
rradius 26.196300
rwrist -7.008155
rhand -4.909649 12.867784
rfingers 7.125020
rthumb 20.871593 -16.007782
lclavicle -0.000000 0.000000
lhumerus -33.435149 24.831272 72.718918
lradius 38.837803
lwrist 1.826211
lhand -3.672595 21.656155
lfingers 7.125020
lthumb 22.068949 50.345157
rfemur -23.669881 2.469178 20.803540
rtibia 54.283488
rfoot -7.710441 -17.638415
rtoes -0.947328
lfemur -19.500010 -6.676801 -25.707250
ltibia 31.490669
lfoot -20.048192 12.770190
ltoes -11.208303
21
root 9.239730 15.970900 -28.241000 2.531372 1.634016 -0.103007
lowerback -1.700495 1.158312 -2.092342
upperback -2.363619 1.553279 -0.243084
thorax -1.446572 0.811093 1.030915
lowerneck -15.361182 0.535354 -0.689407
upperneck 39.039302 1.511110 -0.982820
head 17.262678 0.442958 -0.030204
rclavicle -0.000000 0.000000
rhumerus -39.573551 -14.493426 -74.835828
rradius 26.461377
rwrist -7.444779
rhand -5.037162 12.787859
rfingers 7.125020
rthumb 20.746384 -16.089576
lclavicle -0.000000 0.000000
lhumerus -32.070265 22.213496 74.371293
lradius 42.430139
lwrist 1.500487
lhand -4.020802 20.152942
lfingers 7.125020
lthumb 21.728550 48.880585
rfemur -26.485347 3.389124 20.768907
rtibia 51.196717
rfoot -10.305272 -18.555092
rtoes -1.895316
lfemur -17.585130 -7.188571 -25.905954
ltibia 31.122242
lfoot -21.071339 13.785762
ltoes -10.343413
22
root 9.241850 15.946000 -27.925100 2.536263 1.634016 -0.105059
lowerback -1.562478 1.186482 -2.102726
upperback -2.239288 1.583255 -0.129545
thorax -1.390077 0.825626 1.151531
lowerneck -15.325578 0.540505 -0.481299
upperneck 39.039503 1.434891 -1.036391
head 17.254669 0.445647 -0.100837
rclavicle -0.000000 0.000000
rhumerus -39.726205 -14.497377 -74.983602
rradius 26.693764
rwrist -7.866129
rhand -5.165279 12.663368
rfingers 7.125020
rthumb 20.620404 -16.217020
lclavicle -0.000000 0.000000
lhumerus -30.766740 19.615034 75.983467
lradius 45.952883
lwrist 1.189579
lhand -4.414196 18.698654
lfingers 7.125020
lthumb 21.344786 47.467069
rfemur -29.238035 4.387434 20.693985
rtibia 47.732352
rfoot -12.762369 -19.506864
rtoes -2.844396
lfemur -15.618746 -7.704624 -26.121235
ltibia 30.525906
lfoot -22.055848 14.795813
ltoes -9.250550
23
root 9.242890 15.925900 -27.604900 2.538084 1.634016 -0.106147
lowerback -1.418962 1.222443 -2.129765
upperback -2.110086 1.620931 -0.012906
thorax -1.332643 0.844269 1.280424
lowerneck -15.304979 0.546728 -0.249029
upperneck 39.029831 1.359400 -1.101926
head 17.244029 0.449153 -0.186235
rclavicle -0.000000 0.000000
rhumerus -39.886301 -14.494394 -75.141097
rradius 26.951587
rwrist -8.310906
rhand -5.296908 12.465475
rfingers 7.125020
rthumb 20.490793 -16.420817
lclavicle -0.000000 0.000000
lhumerus -29.440907 16.942215 77.611361
lradius 49.671964
lwrist 0.882488
lhand -4.865777 17.265676
lfingers 7.125020
lthumb 20.904995 46.078041
rfemur -32.084085 5.555919 20.573833
rtibia 43.515460
rfoot -15.439040 -20.623504
rtoes -3.931249
lfemur -13.522265 -8.263843 -26.362399
ltibia 29.604876
lfoot -23.071665 15.820446
ltoes -7.751329
24
root 9.243090 15.943100 -27.273700 2.013153 1.634016 0.114356
lowerback -1.802077 1.047497 -2.741871
upperback -2.236633 1.399470 -0.016084
thorax -1.292761 0.744605 1.614986
lowerneck -15.249698 0.563185 -0.130241
upperneck 38.839305 1.423494 -1.300841
head 17.124488 0.464062 -0.297762
rclavicle -0.000000 0.000000
rhumerus -40.291801 -14.757379 -74.534105
rradius 26.594043
rwrist -7.048892
rhand -4.605292 12.228984
rfingers 7.125020
rthumb 21.158452 -16.605370
lclavicle -0.000000 0.000000
lhumerus -29.582954 16.170117 77.167322
lradius 51.433200
lwrist 1.972432
lhand -4.681545 18.379350
lfingers 7.125020
lthumb 21.093275 47.174820
rfemur -33.395745 8.494533 17.856034
rtibia 35.218682
rfoot -17.483989 -22.258170
rtoes -3.684372
lfemur -9.574479 -8.432311 -27.225551
ltibia 24.775756
lfoot -21.849196 16.158412
ltoes -7.963975
25
root 9.241190 15.944900 -26.946700 1.538299 1.634016 0.174781
lowerback -2.194698 0.876418 -3.341252
upperback -2.363646 1.183773 -0.020250
thorax -1.237654 0.647518 1.947041
lowerneck -15.234590 0.580438 -0.012898
upperneck 38.666071 1.489482 -1.500756
head 17.014818 0.479633 -0.405044
rclavicle -0.000000 0.000000
rhumerus -40.710375 -15.075939 -73.912566
rradius 26.218259
rwrist -5.851207
rhand -3.912646 12.086051
rfingers 7.125020
rthumb 21.826883 -16.700441
lclavicle -0.000000 0.000000
lhumerus -29.688440 15.417243 76.739482
lradius 53.160103
lwrist 3.031605
lhand -4.485023 19.407296
lfingers 7.125020
lthumb 21.293460 48.188626
rfemur -34.733853 11.236454 15.377704
rtibia 27.376072
rfoot -19.395692 -23.826757
rtoes -3.449052
lfemur -5.692063 -8.587851 -28.061305
ltibia 20.483782
lfoot -20.723319 16.495311
ltoes -8.573209
